<svg xmlns="http://www.w3.org/2000/svg" viewBox="0 0 32 32">
  <rect width="32" height="32" rx="7" fill="#0f172a"/>
  <path d="M16 4C16 4 9 11 9 17.5C9 21.64 12.13 25 16 25C19.87 25 23 21.64 23 17.5C23 11 16 4 16 4Z" fill="#f59e0b"/>
  <path d="M16 11C16 11 12.5 14.5 12.5 18C12.5 20.49 14.01 22.5 16 22.5C17.99 22.5 19.5 20.49 19.5 18C19.5 14.5 16 11 16 11Z" fill="#fde68a"/>
  <path d="M16 17C16 17 14.5 18.5 14.5 19.5C14.5 20.33 15.17 21 16 21C16.83 21 17.5 20.33 17.5 19.5C17.5 18.5 16 17 16 17Z" fill="#fff"/>
</svg>
